<svg width="1024" height="1024" viewBox="0 0 1024 1024" fill="none" xmlns="http://www.w3.org/2000/svg">
<defs>
  <linearGradient id="bg" x1="176" y1="120" x2="860" y2="924" gradientUnits="userSpaceOnUse">
    <stop offset="0" stop-color="#2B3140"/>
    <stop offset="0.52" stop-color="#151A24"/>
    <stop offset="1" stop-color="#090C12"/>
  </linearGradient>
  <linearGradient id="panel" x1="248" y1="212" x2="780" y2="840" gradientUnits="userSpaceOnUse">
    <stop offset="0" stop-color="#3A4357"/>
    <stop offset="1" stop-color="#11161F"/>
  </linearGradient>
  <linearGradient id="blade" x1="512" y1="278" x2="512" y2="760" gradientUnits="userSpaceOnUse">
    <stop offset="0" stop-color="#F8FBFF"/>
    <stop offset="0.48" stop-color="#DCE6F3"/>
    <stop offset="1" stop-color="#97B8FF"/>
  </linearGradient>
  <radialGradient id="glow" cx="0" cy="0" r="1" gradientUnits="userSpaceOnUse" gradientTransform="translate(512 494) rotate(90) scale(336)">
    <stop offset="0" stop-color="#76B8FF" stop-opacity="0.44"/>
    <stop offset="1" stop-color="#76B8FF" stop-opacity="0"/>
  </radialGradient>
  <radialGradient id="core" cx="0" cy="0" r="1" gradientUnits="userSpaceOnUse" gradientTransform="translate(512 512) rotate(90) scale(164)">
    <stop offset="0" stop-color="#0F1724"/>
    <stop offset="1" stop-color="#020407"/>
  </radialGradient>
  <filter id="shadow" x="112" y="112" width="800" height="800" filterUnits="userSpaceOnUse" color-interpolation-filters="sRGB">
    <feDropShadow dx="0" dy="34" stdDeviation="40" flood-color="#020407" flood-opacity="0.55"/>
  </filter>
  <filter id="innerGlow" x="152" y="152" width="720" height="720" filterUnits="userSpaceOnUse" color-interpolation-filters="sRGB">
    <feDropShadow dx="0" dy="0" stdDeviation="18" flood-color="#A9C8FF" flood-opacity="0.26"/>
  </filter>
</defs>

<rect width="1024" height="1024" rx="232" fill="url(#bg)"/>
<rect x="32" y="32" width="960" height="960" rx="200" fill="url(#panel)"/>
<path d="M170 132C246 76 360 48 496 48H760C837 48 900 111 900 188V244C772 178 618 142 440 142C324 142 234 138 170 132Z" fill="white" fill-opacity="0.08"/>
<rect x="32" y="32" width="960" height="960" rx="200" stroke="white" stroke-opacity="0.1" stroke-width="8"/>
<circle cx="512" cy="504" r="314" fill="url(#glow)"/>

<g filter="url(#shadow)">
  <g filter="url(#innerGlow)">
    <g transform="translate(512 512)">
      <g transform="rotate(0)">
        <rect x="-78" y="-308" width="156" height="270" rx="78" fill="url(#blade)"/>
      </g>
      <g transform="rotate(120)">
        <rect x="-78" y="-308" width="156" height="270" rx="78" fill="url(#blade)"/>
      </g>
      <g transform="rotate(240)">
        <rect x="-78" y="-308" width="156" height="270" rx="78" fill="url(#blade)"/>
      </g>
      <circle r="118" fill="url(#core)"/>
      <circle r="66" fill="#EAF2FF"/>
      <circle r="24" fill="#86AFFF"/>
    </g>
  </g>
</g>
</svg>
